# xmcd CD database file
#
# Track frame offsets:
#	150
#	44481
#	79255
#	126743
#	160869
#	220081
#
# Disc length: 3158 seconds
#
# Revision: 1
# Processed by: cddbd v1.5.1PL0 Copyright (c) Steve Scherf et al.
# Submitted via: CDex 1.51
#
DISCID=540c5406
DTITLE=Elements - Nature's Ballet
DYEAR=2004
DGENRE=New Age
TTITLE0=Signs of Life
TTITLE1=The Awakening
TTITLE2=Life's Way
TTITLE3=On the Wind
TTITLE4=Sounds of the Season
TTITLE5=Full Bloom
EXTD=YEAR: 2004
EXTT0=
EXTT1=
EXTT2=
EXTT3=
EXTT4=
EXTT5=
PLAYORDER=
